<?xml version="1.0" encoding="utf-8"?>
<!-- Generator: Adobe Illustrator 25.4.1, SVG Export Plug-In . SVG Version: 6.00 Build 0)  -->
<svg version="1.1" id="Layer_1" xmlns="http://www.w3.org/2000/svg" xmlns:xlink="http://www.w3.org/1999/xlink" x="0px" y="0px"
	 viewBox="0 0 250 250" style="enable-background:new 0 0 250 250;" xml:space="preserve">
<style type="text/css">
	.st0{fill:#03443E;}
	.st1{fill:#E07A5F;}
</style>
<path class="st0" d="M193,72.6c-0.9-1.2-2.2-2.1-3.6-2.5c-22.7-7.7-49,4.1-71.3,9.3c-16.9,4-39.7,7-55.2-2.6
	c-3.6-2.2-8.3-1.2-10.6,2.4C44,92.5,39.1,108.2,39.1,125c0,11.3,2.2,22.1,6.2,31.9c0.9,2.2,2.8,3.9,5.1,4.5c20.1,5.5,41.1,4.3,62,6
	c21,1.7,46.5,4.9,64.2,18.1c3.1,2.3,7.4,1.9,10.1-0.9c15-15.5,24.2-36.5,24.2-59.7C210.9,105.3,204.2,87.1,193,72.6z"/>
<g>
	<path class="st1" d="M75.5,122.8v12.8h-6.3v-12.8c0-2.1-1.7-3.8-3.8-3.8c-2.1,0-3.8,1.7-3.8,3.8v12.8h-6.3v-22.9h6.3v0.7
		c1.2-0.5,2.5-0.7,3.8-0.7C71,112.8,75.5,117.3,75.5,122.8z"/>
	<path class="st1" d="M102.1,124.2c0,4.6-2.8,8.8-7.1,10.6c-4.3,1.8-9.2,0.8-12.5-2.5c-3.3-3.3-4.3-8.2-2.5-12.5
		c1.8-4.3,5.9-7.1,10.6-7.1C96.9,112.8,102,117.9,102.1,124.2z M90.6,129.4c2.8,0,5.2-2.3,5.2-5.2c0-2.1-1.3-4-3.2-4.8
		c-1.9-0.8-4.1-0.4-5.6,1.1s-1.9,3.7-1.1,5.6S88.5,129.4,90.6,129.4L90.6,129.4z"/>
	<path class="st1" d="M139.6,122.8v12.8h-6.3v-12.8c0-2.1-1.7-3.8-3.8-3.8c-2.1,0-3.8,1.7-3.8,3.8v12.8h-6.3v-12.8
		c0-2.1-1.7-3.8-3.8-3.8c-2.1,0-3.8,1.7-3.8,3.8v12.8h-6.3v-22.9h6.3v0.7c3.6-1.5,7.8-0.7,10.7,2c1.9-1.8,4.3-2.8,6.9-2.8
		C135.1,112.8,139.6,117.3,139.6,122.8z"/>
	<path class="st1" d="M143.8,106v-6.6h6.3v6.6H143.8z M143.8,135.7v-22.9h6.3l-0.4,1.7c-0.4,1.4-0.8,2.8-1.4,4.2
		c-1.2,2.6-1.5,6.3-0.3,9.8c0.2,0.6,0.5,1.3,0.6,1.9l1.5,5.3H143.8z"/>
	<path class="st1" d="M176.6,124.2c0,4.6-2.8,8.8-7.1,10.6s-9.2,0.8-12.5-2.5s-4.3-8.2-2.5-12.5c1.8-4.3,5.9-7.1,10.6-7.1
		C171.4,112.8,176.6,117.9,176.6,124.2z M165.1,129.4c2.8,0,5.2-2.3,5.2-5.2c0-2.1-1.3-4-3.2-4.8c-1.9-0.8-4.1-0.4-5.6,1.1
		c-1.5,1.5-1.9,3.7-1.1,5.6C161.2,128.1,163,129.4,165.1,129.4L165.1,129.4z"/>
	<path class="st1" d="M200.5,123v12.7h-6.3V123c0-2.1-1.7-3.9-3.9-3.9s-3.9,1.7-3.9,3.9v12.7h-6.3V99.3h6.3v14.3
		c1.2-0.5,2.5-0.8,3.9-0.8C196,112.8,200.5,117.3,200.5,123z"/>
</g>
<g>
</g>
<g>
</g>
<g>
</g>
<g>
</g>
<g>
</g>
</svg>
